<svg id="Layer_1" data-name="Layer 1" xmlns="http://www.w3.org/2000/svg" viewBox="0 0 1000 1000"><defs><style>.cls-1{fill:none;}.cls-2{fill:#df5826;}.cls-3{fill:#e19c28;}.cls-4{fill:#1a4790;}</style></defs><path class="cls-1" d="M356.07,412.27a33,33,0,0,1-32.92,32.93h-220c3.16-18,6.2-36.22,8.85-55.2q.87-5.43,2-10.66H323.15a33,33,0,0,1,32.92,32.93Z"/><path class="cls-1" d="M899.07,601.71H647.54a32.93,32.93,0,1,1,0-65.86h256.3A240,240,0,0,1,899.07,601.71Z"/><path class="cls-1" d="M728.63,705a33,33,0,0,1-32.92,32.93H276.19a32.93,32.93,0,0,1,0-65.86H695.71A33,33,0,0,1,728.63,705Z"/><path class="cls-2" d="M850.38,501.19q0,14.52-1.21,28.72-1.36,16.23-4.22,32C816.35,720.06,678,840,511.55,840c-187.13,0-338.83-151.7-338.83-338.83,0-155.94,105.35-287.28,248.76-326.72q8.59-2.37,17.39-4.31c40.83-13.7,85-12.23,126.63-3.53q8.79,1.41,17.41,3.26c138,29.59,244.89,143.27,264.3,284.82q2.17,15.78,2.87,32Q850.38,493.91,850.38,501.19Z"/><rect class="cls-3" x="164.77" y="627.85" width="544.48" height="75.21" rx="35.95"/><path class="cls-4" d="M587.36,919.14q-2.15,9.2-4.85,18.32t-6,18.17a23.53,23.53,0,0,0-.48,2.58C333,956.27,135.08,765.2,122.19,525c-.06-1-.1-2-.14-3q-.22-4.47-.34-9-.19-6.48-.19-13a462.66,462.66,0,0,1,3.06-53.21q.53-4.51,1.14-9c.13-1,.27-2,.42-3a456.59,456.59,0,0,1,11.3-54.91c1.08-4,2.2-8,3.39-11.9q2-6.8,4.28-13.49a457.36,457.36,0,0,1,20-49.81q2.82-6,5.83-11.9,7.36-14.55,15.76-28.48C266.86,131,412.89,41.79,579.74,41.79c1.92,0,3.83,0,5.73.07.08,3.71.16,7.44.28,11.15,8.41,70.61-16.32,141.25-7.48,211.92,14.12,111.3-3.53,220.81-3.15,330.39.15,6.35.4,12.68.71,19q.95,19,2.79,38.15c.64,5.17,1.73,10.12,2.11,13.81C578.27,750.73,603,835.51,587.36,919.14Z"/><path class="cls-3" d="M850.38,501.19q0,14.52-1.21,28.72-1.36,16.23-4.22,32H689.49a37.6,37.6,0,0,1,0-75.2H850.08Q850.38,493.91,850.38,501.19Z"/><path class="cls-3" d="M393.75,328.73V332a36,36,0,0,1-35.95,36h-217q2-6.8,4.28-13.49a457.36,457.36,0,0,1,20-49.81q2.82-6,5.83-11.9H357.8A36.05,36.05,0,0,1,393.75,328.73Z"/><path class="cls-3" d="M393.75,473.8v3.3a36.05,36.05,0,0,1-35.95,35.95H121.71q-.19-6.48-.19-13a462.66,462.66,0,0,1,3.06-53.21q.53-4.51,1.14-9H357.8A36.05,36.05,0,0,1,393.75,473.8Z"/></svg>